<svg xmlns="http://www.w3.org/2000/svg" xmlns:xlink="http://www.w3.org/1999/xlink" width="1080" zoomAndPan="magnify" viewBox="0 0 810 809.999993" height="1080" preserveAspectRatio="xMidYMid meet" version="1.0"><defs><g/><clipPath id="30c0df58f6"><path d="M 91.003906 342.480469 L 203.503906 342.480469 L 203.503906 465.480469 L 91.003906 465.480469 Z M 91.003906 342.480469 " clip-rule="nonzero"/></clipPath></defs><g clip-path="url(#30c0df58f6)"><path fill="#010101" d="M 145.628906 342.777344 C 142.347656 343.773438 140.246094 346.25 139.777344 349.664062 L 139.554688 351.296875 L 133.898438 354.632812 C 130.785156 356.464844 122.777344 361.203125 116.101562 365.164062 L 103.96875 372.363281 L 102.292969 371.53125 C 97.429688 369.125 91.835938 372.132812 91.09375 377.546875 C 90.699219 380.429688 92.4375 383.839844 94.964844 385.125 L 96.300781 385.808594 L 96.300781 426.6875 L 95.542969 427.03125 C 90.570312 429.296875 89.550781 436.464844 93.703125 439.96875 C 94.308594 440.476562 95.285156 441.09375 95.875 441.34375 C 97.4375 441.996094 100.539062 441.894531 102.222656 441.132812 L 103.644531 440.488281 L 125.609375 453.152344 L 147.578125 465.820312 L 191.054688 440.492188 L 192.328125 441.140625 C 193.988281 441.988281 196.988281 441.996094 198.792969 441.160156 C 203.726562 438.871094 204.84375 432.332031 200.949219 428.542969 C 200.335938 427.945312 199.710938 427.460938 199.5625 427.460938 C 199.414062 427.460938 199.292969 418.007812 199.292969 406.460938 L 199.292969 385.460938 L 200.679688 384.210938 C 203.386719 381.769531 204.070312 378.15625 202.445312 374.890625 C 200.578125 371.140625 195.964844 369.605469 192.136719 371.460938 L 190.652344 372.175781 L 155.464844 350.878906 L 155.25 349.394531 C 154.566406 344.65625 149.929688 341.46875 145.628906 342.777344 M 151.792969 356.863281 C 151.246094 357.203125 150.164062 357.640625 149.390625 357.84375 C 148.023438 358.195312 147.953125 358.28125 146.980469 360.808594 C 145.664062 364.226562 143.644531 371.410156 142.273438 377.582031 C 141.09375 382.890625 141.015625 382.9375 140.265625 378.796875 C 139.199219 372.929688 139.824219 363.699219 141.632812 358.546875 C 141.972656 357.585938 142.175781 356.796875 142.085938 356.796875 C 142 356.796875 136.199219 360.195312 129.195312 364.351562 C 122.195312 368.503906 114.933594 372.808594 113.058594 373.914062 C 111.1875 375.023438 109.695312 375.96875 109.746094 376.019531 C 109.796875 376.070312 111.882812 376.492188 114.378906 376.953125 C 124.511719 378.824219 137.207031 383.320312 146.632812 388.371094 C 152.972656 391.769531 162.109375 397.472656 165.054688 399.875 L 165.980469 400.628906 L 163.613281 402.488281 L 161.242188 404.347656 L 156.171875 400.988281 C 141.582031 391.3125 126.332031 385.023438 111.339844 382.492188 C 106.191406 381.621094 105.734375 381.621094 105.464844 382.464844 C 105.347656 382.832031 104.589844 383.691406 103.777344 384.371094 L 102.300781 385.605469 L 102.300781 426.875 L 103.832031 428.222656 C 105.300781 429.515625 105.449219 429.570312 107.414062 429.496094 C 114.421875 429.234375 124.605469 426.835938 129.75 424.234375 C 130.636719 423.78125 131.433594 423.484375 131.519531 423.566406 C 131.804688 423.855469 127.140625 428.316406 125.132812 429.679688 C 121.191406 432.351562 116.003906 434.539062 111.464844 435.441406 C 107.960938 436.136719 107.992188 436.070312 110.503906 437.535156 C 116.546875 441.054688 140.988281 455.125 141.066406 455.125 C 141.113281 455.125 140.585938 453.402344 139.898438 451.300781 C 135.101562 436.660156 132.976562 419.394531 133.945312 402.960938 C 134.164062 399.292969 134.441406 395.523438 134.570312 394.578125 L 134.796875 392.863281 L 137.632812 394.152344 C 140.039062 395.246094 140.457031 395.554688 140.414062 396.199219 C 139.484375 409.867188 139.5 415.003906 140.5 425.125 C 141.585938 436.0625 144.558594 448.246094 148.101562 456.261719 L 148.925781 458.125 L 152.527344 456.023438 C 154.511719 454.871094 163.292969 449.753906 172.046875 444.652344 L 187.960938 435.378906 L 187.960938 433.316406 C 187.960938 431.542969 187.792969 430.976562 186.773438 429.277344 C 184.886719 426.144531 181.0625 421.667969 175.988281 416.652344 C 173.40625 414.101562 171.296875 411.976562 171.296875 411.925781 C 171.296875 411.875 172.355469 412.128906 173.652344 412.488281 C 178.824219 413.921875 184.140625 417.316406 189.710938 422.742188 L 193.292969 426.230469 L 193.292969 387.855469 L 189.210938 392.027344 C 177.144531 404.351562 163.441406 414.351562 147.804688 422.234375 C 145.425781 423.4375 143.445312 424.386719 143.410156 424.347656 C 143.371094 424.3125 143.304688 422.859375 143.261719 421.121094 L 143.183594 417.960938 L 145.324219 416.839844 C 161.5 408.386719 176.242188 397.414062 186.589844 386.128906 L 189.3125 383.160156 L 188.636719 381.898438 C 188.234375 381.152344 187.960938 380.007812 187.960938 379.085938 L 187.960938 377.535156 L 182.046875 373.949219 C 178.792969 371.976562 170.878906 367.191406 164.460938 363.308594 L 152.792969 356.25 L 151.792969 356.863281 " fill-opacity="1" fill-rule="evenodd"/></g><g fill="#010101" fill-opacity="1"><g transform="translate(243.436969, 442.124998)"><g><path d="M 6.546875 0 L 6.546875 -54.5625 L 17.90625 -54.5625 L 17.90625 -48.78125 C 19.789062 -51.039062 22.109375 -52.820312 24.859375 -54.125 C 27.609375 -55.4375 30.582031 -56.09375 33.78125 -56.09375 C 37.675781 -56.09375 41.257812 -55.15625 44.53125 -53.28125 C 47.800781 -51.414062 50.398438 -48.9375 52.328125 -45.84375 C 54.253906 -48.9375 56.828125 -51.414062 60.046875 -53.28125 C 63.273438 -55.15625 66.832031 -56.09375 70.71875 -56.09375 C 74.757812 -56.09375 78.4375 -55.109375 81.75 -53.140625 C 85.0625 -51.179688 87.695312 -48.546875 89.65625 -45.234375 C 91.625 -41.921875 92.609375 -38.25 92.609375 -34.21875 L 92.609375 0 L 81.25 0 L 81.25 -31.328125 C 81.25 -33.722656 80.664062 -35.921875 79.5 -37.921875 C 78.34375 -39.921875 76.78125 -41.539062 74.8125 -42.78125 C 72.851562 -44.019531 70.671875 -44.640625 68.265625 -44.640625 C 65.867188 -44.640625 63.6875 -44.054688 61.71875 -42.890625 C 59.75 -41.722656 58.179688 -40.140625 57.015625 -38.140625 C 55.859375 -36.140625 55.28125 -33.867188 55.28125 -31.328125 L 55.28125 0 L 43.921875 0 L 43.921875 -31.328125 C 43.921875 -33.867188 43.335938 -36.140625 42.171875 -38.140625 C 41.015625 -40.140625 39.441406 -41.722656 37.453125 -42.890625 C 35.472656 -44.054688 33.285156 -44.640625 30.890625 -44.640625 C 28.523438 -44.640625 26.347656 -44.019531 24.359375 -42.78125 C 22.378906 -41.539062 20.804688 -39.921875 19.640625 -37.921875 C 18.484375 -35.921875 17.90625 -33.722656 17.90625 -31.328125 L 17.90625 0 Z M 6.546875 0 "/></g></g></g><g fill="#010101" fill-opacity="1"><g transform="translate(341.496214, 442.124998)"><g><path d="M 6.546875 -54.5625 L 17.90625 -54.5625 L 17.90625 0 L 6.546875 0 Z M 12.328125 -62.484375 C 10.585938 -62.484375 9.132812 -63.046875 7.96875 -64.171875 C 6.800781 -65.296875 6.21875 -66.71875 6.21875 -68.4375 C 6.21875 -70.101562 6.800781 -71.507812 7.96875 -72.65625 C 9.132812 -73.800781 10.570312 -74.375 12.28125 -74.375 C 13.945312 -74.375 15.363281 -73.800781 16.53125 -72.65625 C 17.695312 -71.507812 18.28125 -70.101562 18.28125 -68.4375 C 18.28125 -66.71875 17.707031 -65.296875 16.5625 -64.171875 C 15.414062 -63.046875 14.003906 -62.484375 12.328125 -62.484375 Z M 12.328125 -62.484375 "/></g></g></g><g fill="#010101" fill-opacity="1"><g transform="translate(367.034207, 442.124998)"><g><path d="M 55.65625 -34.21875 L 55.65625 0 L 44.3125 0 L 44.3125 -31.4375 C 44.3125 -33.875 43.71875 -36.09375 42.53125 -38.09375 C 41.351562 -40.09375 39.769531 -41.679688 37.78125 -42.859375 C 35.800781 -44.046875 33.578125 -44.640625 31.109375 -44.640625 C 28.703125 -44.640625 26.5 -44.046875 24.5 -42.859375 C 22.5 -41.679688 20.898438 -40.09375 19.703125 -38.09375 C 18.503906 -36.09375 17.90625 -33.875 17.90625 -31.4375 L 17.90625 0 L 6.546875 0 L 6.546875 -54.5625 L 17.90625 -54.5625 L 17.90625 -48.78125 C 19.789062 -51.039062 22.113281 -52.820312 24.875 -54.125 C 27.644531 -55.4375 30.628906 -56.09375 33.828125 -56.09375 C 37.867188 -56.09375 41.546875 -55.109375 44.859375 -53.140625 C 48.171875 -51.179688 50.796875 -48.546875 52.734375 -45.234375 C 54.679688 -41.921875 55.65625 -38.25 55.65625 -34.21875 Z M 55.65625 -34.21875 "/></g></g></g><g fill="#010101" fill-opacity="1"><g transform="translate(428.150724, 442.124998)"><g><path d="M 49.0625 -81.859375 L 60.40625 -81.859375 L 60.40625 0 L 49.0625 0 L 49.0625 -8.015625 C 47.28125 -5.179688 44.953125 -2.898438 42.078125 -1.171875 C 39.203125 0.554688 35.835938 1.421875 31.984375 1.421875 C 28.015625 1.421875 24.300781 0.675781 20.84375 -0.8125 C 17.382812 -2.3125 14.335938 -4.378906 11.703125 -7.015625 C 9.066406 -9.648438 7.003906 -12.695312 5.515625 -16.15625 C 4.023438 -19.613281 3.28125 -23.320312 3.28125 -27.28125 C 3.28125 -31.25 4.023438 -34.96875 5.515625 -38.4375 C 7.003906 -41.914062 9.066406 -44.972656 11.703125 -47.609375 C 14.335938 -50.242188 17.382812 -52.304688 20.84375 -53.796875 C 24.300781 -55.296875 28.015625 -56.046875 31.984375 -56.046875 C 35.835938 -56.046875 39.203125 -55.179688 42.078125 -53.453125 C 44.953125 -51.722656 47.28125 -49.457031 49.0625 -46.65625 Z M 32.09375 -9.546875 C 35.289062 -9.546875 38.085938 -10.335938 40.484375 -11.921875 C 42.890625 -13.503906 44.753906 -15.640625 46.078125 -18.328125 C 47.410156 -21.023438 48.078125 -24.007812 48.078125 -27.28125 C 48.078125 -30.59375 47.398438 -33.59375 46.046875 -36.28125 C 44.703125 -38.976562 42.835938 -41.117188 40.453125 -42.703125 C 38.078125 -44.285156 35.289062 -45.078125 32.09375 -45.078125 C 28.925781 -45.078125 26.039062 -44.273438 23.4375 -42.671875 C 20.832031 -41.066406 18.753906 -38.921875 17.203125 -36.234375 C 15.660156 -33.546875 14.890625 -30.5625 14.890625 -27.28125 C 14.890625 -23.96875 15.679688 -20.972656 17.265625 -18.296875 C 18.847656 -15.628906 20.941406 -13.503906 23.546875 -11.921875 C 26.148438 -10.335938 29 -9.546875 32.09375 -9.546875 Z M 32.09375 -9.546875 "/></g></g></g><g fill="#010101" fill-opacity="1"><g transform="translate(496.197416, 442.124998)"><g><path d="M 42.1875 -15.5 L 52.328125 -9.984375 C 49.859375 -6.523438 46.722656 -3.757812 42.921875 -1.6875 C 39.117188 0.382812 35 1.421875 30.5625 1.421875 C 25.539062 1.421875 20.960938 0.128906 16.828125 -2.453125 C 12.703125 -5.035156 9.410156 -8.5 6.953125 -12.84375 C 4.503906 -17.195312 3.28125 -22.007812 3.28125 -27.28125 C 3.28125 -31.28125 3.988281 -35.015625 5.40625 -38.484375 C 6.820312 -41.960938 8.773438 -45.019531 11.265625 -47.65625 C 13.753906 -50.300781 16.65625 -52.367188 19.96875 -53.859375 C 23.28125 -55.347656 26.8125 -56.09375 30.5625 -56.09375 C 35 -56.09375 39.117188 -55.054688 42.921875 -52.984375 C 46.722656 -50.910156 49.859375 -48.128906 52.328125 -44.640625 L 42.1875 -39.125 C 40.65625 -40.945312 38.867188 -42.335938 36.828125 -43.296875 C 34.796875 -44.265625 32.707031 -44.75 30.5625 -44.75 C 27.570312 -44.75 24.867188 -43.9375 22.453125 -42.3125 C 20.035156 -40.695312 18.125 -38.570312 16.71875 -35.9375 C 15.320312 -33.300781 14.625 -30.414062 14.625 -27.28125 C 14.625 -24.1875 15.332031 -21.320312 16.75 -18.6875 C 18.164062 -16.050781 20.082031 -13.929688 22.5 -12.328125 C 24.925781 -10.734375 27.613281 -9.9375 30.5625 -9.9375 C 32.8125 -9.9375 34.953125 -10.441406 36.984375 -11.453125 C 39.023438 -12.472656 40.757812 -13.820312 42.1875 -15.5 Z M 42.1875 -15.5 "/></g></g></g><g fill="#010101" fill-opacity="1"><g transform="translate(552.893893, 442.124998)"><g><path d="M 49 -54.5625 L 60.359375 -54.5625 L 60.359375 0 L 48.953125 0 L 48.515625 -7.90625 C 46.910156 -5.101562 44.742188 -2.847656 42.015625 -1.140625 C 39.285156 0.566406 36.066406 1.421875 32.359375 1.421875 C 28.359375 1.421875 24.59375 0.664062 21.0625 -0.84375 C 17.53125 -2.351562 14.425781 -4.453125 11.75 -7.140625 C 9.082031 -9.835938 7.003906 -12.941406 5.515625 -16.453125 C 4.023438 -19.960938 3.28125 -23.738281 3.28125 -27.78125 C 3.28125 -31.664062 4.003906 -35.328125 5.453125 -38.765625 C 6.910156 -42.203125 8.929688 -45.210938 11.515625 -47.796875 C 14.097656 -50.378906 17.085938 -52.40625 20.484375 -53.875 C 23.890625 -55.351562 27.539062 -56.09375 31.4375 -56.09375 C 35.394531 -56.09375 38.894531 -55.191406 41.9375 -53.390625 C 44.976562 -51.597656 47.5 -49.300781 49.5 -46.5 Z M 32.09375 -9.546875 C 35.289062 -9.546875 38.085938 -10.335938 40.484375 -11.921875 C 42.890625 -13.503906 44.753906 -15.640625 46.078125 -18.328125 C 47.410156 -21.023438 48.078125 -24.007812 48.078125 -27.28125 C 48.078125 -30.59375 47.398438 -33.59375 46.046875 -36.28125 C 44.703125 -38.976562 42.835938 -41.117188 40.453125 -42.703125 C 38.078125 -44.285156 35.289062 -45.078125 32.09375 -45.078125 C 28.925781 -45.078125 26.03125 -44.273438 23.40625 -42.671875 C 20.789062 -41.066406 18.71875 -38.921875 17.1875 -36.234375 C 15.65625 -33.546875 14.890625 -30.5625 14.890625 -27.28125 C 14.890625 -23.96875 15.679688 -20.972656 17.265625 -18.296875 C 18.847656 -15.628906 20.941406 -13.503906 23.546875 -11.921875 C 26.148438 -10.335938 29 -9.546875 32.09375 -9.546875 Z M 32.09375 -9.546875 "/></g></g></g><g fill="#010101" fill-opacity="1"><g transform="translate(618.703277, 442.124998)"><g><path d="M 22.921875 1.03125 C 20.046875 0.851562 17.242188 0.273438 14.515625 -0.703125 C 11.785156 -1.691406 9.390625 -3.03125 7.328125 -4.71875 C 5.273438 -6.414062 3.742188 -8.410156 2.734375 -10.703125 L 12.390625 -14.84375 C 12.859375 -13.863281 13.679688 -12.898438 14.859375 -11.953125 C 16.046875 -11.003906 17.441406 -10.226562 19.046875 -9.625 C 20.648438 -9.03125 22.320312 -8.734375 24.0625 -8.734375 C 25.769531 -8.734375 27.359375 -8.976562 28.828125 -9.46875 C 30.304688 -9.957031 31.519531 -10.710938 32.46875 -11.734375 C 33.414062 -12.753906 33.890625 -13.972656 33.890625 -15.390625 C 33.890625 -16.992188 33.351562 -18.238281 32.28125 -19.125 C 31.207031 -20.019531 29.867188 -20.703125 28.265625 -21.171875 C 26.660156 -21.640625 25.0625 -22.09375 23.46875 -22.53125 C 19.90625 -23.332031 16.640625 -24.429688 13.671875 -25.828125 C 10.703125 -27.234375 8.34375 -29.035156 6.59375 -31.234375 C 4.851562 -33.441406 3.984375 -36.144531 3.984375 -39.34375 C 3.984375 -42.832031 4.925781 -45.859375 6.8125 -48.421875 C 8.707031 -50.992188 11.191406 -52.96875 14.265625 -54.34375 C 17.335938 -55.726562 20.625 -56.421875 24.125 -56.421875 C 28.488281 -56.421875 32.488281 -55.492188 36.125 -53.640625 C 39.757812 -51.785156 42.539062 -49.238281 44.46875 -46 L 35.46875 -40.65625 C 34.925781 -41.75 34.109375 -42.726562 33.015625 -43.59375 C 31.921875 -44.46875 30.679688 -45.171875 29.296875 -45.703125 C 27.921875 -46.234375 26.488281 -46.535156 25 -46.609375 C 23.132812 -46.679688 21.410156 -46.46875 19.828125 -45.96875 C 18.253906 -45.476562 16.992188 -44.707031 16.046875 -43.65625 C 15.097656 -42.601562 14.625 -41.257812 14.625 -39.625 C 14.625 -38.019531 15.1875 -36.828125 16.3125 -36.046875 C 17.445312 -35.265625 18.875 -34.632812 20.59375 -34.15625 C 22.320312 -33.6875 24.097656 -33.160156 25.921875 -32.578125 C 29.160156 -31.554688 32.195312 -30.304688 35.03125 -28.828125 C 37.875 -27.359375 40.164062 -25.550781 41.90625 -23.40625 C 43.65625 -21.257812 44.492188 -18.640625 44.421875 -15.546875 C 44.421875 -12.128906 43.390625 -9.128906 41.328125 -6.546875 C 39.273438 -3.960938 36.613281 -2 33.34375 -0.65625 C 30.070312 0.6875 26.597656 1.25 22.921875 1.03125 Z M 22.921875 1.03125 "/></g></g></g><g fill="#010101" fill-opacity="1"><g transform="translate(666.996243, 442.124998)"><g><path d="M 30.5625 1.421875 C 25.539062 1.421875 20.960938 0.128906 16.828125 -2.453125 C 12.703125 -5.035156 9.410156 -8.5 6.953125 -12.84375 C 4.503906 -17.195312 3.28125 -22.007812 3.28125 -27.28125 C 3.28125 -31.28125 3.988281 -35.015625 5.40625 -38.484375 C 6.820312 -41.960938 8.773438 -45.019531 11.265625 -47.65625 C 13.753906 -50.300781 16.65625 -52.367188 19.96875 -53.859375 C 23.28125 -55.347656 26.8125 -56.09375 30.5625 -56.09375 C 34.738281 -56.09375 38.570312 -55.226562 42.0625 -53.5 C 45.5625 -51.769531 48.546875 -49.382812 51.015625 -46.34375 C 53.492188 -43.3125 55.3125 -39.820312 56.46875 -35.875 C 57.632812 -31.925781 57.984375 -27.734375 57.515625 -23.296875 L 15.4375 -23.296875 C 15.914062 -20.785156 16.835938 -18.519531 18.203125 -16.5 C 19.566406 -14.488281 21.3125 -12.898438 23.4375 -11.734375 C 25.5625 -10.566406 27.9375 -9.96875 30.5625 -9.9375 C 33.320312 -9.9375 35.835938 -10.625 38.109375 -12 C 40.390625 -13.382812 42.253906 -15.296875 43.703125 -17.734375 L 55.21875 -15.0625 C 53.039062 -10.21875 49.75 -6.257812 45.34375 -3.1875 C 40.945312 -0.113281 36.019531 1.421875 30.5625 1.421875 Z M 15.0625 -31.984375 L 46.0625 -31.984375 C 45.695312 -34.597656 44.773438 -36.96875 43.296875 -39.09375 C 41.828125 -41.226562 39.988281 -42.921875 37.78125 -44.171875 C 35.582031 -45.429688 33.175781 -46.0625 30.5625 -46.0625 C 27.976562 -46.0625 25.582031 -45.441406 23.375 -44.203125 C 21.175781 -42.960938 19.359375 -41.28125 17.921875 -39.15625 C 16.484375 -37.03125 15.53125 -34.640625 15.0625 -31.984375 Z M 15.0625 -31.984375 "/></g></g></g></svg>